<svg width="248" height="202" viewBox="0 0 248 202" fill="none" xmlns="http://www.w3.org/2000/svg">
<path d="M101.902 0.673989L101.203 1.37496L101.391 6.95574C101.526 10.4606 101.499 12.4287 101.338 12.2669C101.203 12.1052 100.02 10.3527 98.7295 8.33071C96.3904 4.61019 95.4493 3.7205 94.4007 4.15187C93.5672 4.47539 87.1143 8.68119 86.6841 9.2204C85.8237 10.2179 86.0926 11.2694 87.894 14.0193C91.8733 20.1124 95.3418 25.5314 95.3418 25.7201C95.3418 25.801 94.6696 26.7176 93.8361 27.7152C91.0936 31.0313 88.8889 36.6121 88.8889 40.1978V41.7345L87.0874 42.759C84.9902 43.9183 82.1671 46.7222 80.8765 48.879C78.8331 52.276 77.892 56.6975 78.4029 60.4449C78.7524 63.0331 79.2095 64.489 80.4194 66.8615C81.1991 68.3713 81.3336 68.9644 81.4411 71.1751C81.6025 73.9521 81.4142 73.332 88.6738 95.4394C90.1526 99.9687 91.8196 104.983 92.3304 106.628C92.895 108.353 93.5403 109.809 93.8899 110.187L94.5083 110.807H124.756H155.004L155.676 110.187C156.134 109.782 156.698 108.434 157.585 105.684C158.258 103.527 160.812 95.709 163.232 88.2949C165.678 80.8808 167.776 74.2756 167.91 73.6016C168.071 72.9276 168.206 71.4987 168.206 70.4203C168.206 68.8566 168.34 68.2634 168.824 67.4546C171.782 62.6557 172.078 55.8887 169.577 50.5505C168.502 48.2589 166.512 45.7246 164.522 44.134L162.828 42.759V41.0066C162.828 38.9576 162.076 35.5606 161.108 33.1611C160.382 31.3818 157.881 27.4456 156.94 26.5828L156.375 26.0706L157.236 25.127C159.36 22.7005 160.193 18.7374 159.172 15.8796C158.258 13.3723 155.945 11.3503 153.176 10.6223C151.966 10.3258 151.939 10.2988 151.213 8.35767C149.627 4.07099 146.777 2.18377 142.421 2.48033C139.598 2.69601 136.264 4.77195 134.946 7.14446C134.678 7.60278 134.624 7.60278 133.629 6.9827C131.021 5.36508 127.553 4.31363 124.783 4.31363C121.61 4.31363 117.335 5.8234 114.835 7.81847L113.759 8.68119L113.598 5.87732C113.491 4.36755 113.41 2.69601 113.383 2.21073C113.356 1.67152 113.114 1.07839 112.684 0.673989C112.039 -1.78739e-05 111.958 -1.78739e-05 107.307 -1.78739e-05C102.601 -1.78739e-05 102.574 -1.78739e-05 101.902 0.673989ZM109.431 9.57088C109.565 13.7767 109.538 15.0977 109.216 16.2301C109 17.0119 108.758 18.0903 108.678 18.6295C108.516 19.5192 108.409 19.6271 107.522 19.7619C106.984 19.8697 106.473 19.8697 106.392 19.7888C106.312 19.708 106.15 17.3085 106.043 14.4777C105.962 11.6199 105.801 8.16895 105.72 6.79397L105.586 4.31363H107.414H109.242L109.431 9.57088ZM145.782 7.57582C146.804 8.54639 147.261 9.59784 147.503 11.539C147.799 13.8036 148.229 14.235 150.568 14.5855C153.741 15.0169 155.058 16.0953 155.246 18.4139C155.434 20.7594 153.875 23.051 151.321 24.1564C150.084 24.6956 145.271 24.5069 141.319 23.779L138.791 23.3206L138.576 22.377C138.173 20.4628 137.555 15.2865 137.555 13.6958C137.555 12.8061 137.689 11.5929 137.877 11.0267C138.28 9.6248 139.813 7.87239 141.157 7.22534C142.69 6.52437 144.841 6.68613 145.782 7.57582ZM127.579 9.03168C129.3 9.43608 131.962 10.865 132.769 11.7816C133.064 12.1321 133.226 13.1296 133.36 15.3673C133.575 19.7888 134.704 25.801 135.404 26.5559C136.721 27.9578 149.224 29.4945 151.697 28.5779C152.342 28.3083 152.531 28.3892 153.364 29.171C155.461 31.193 157.236 34.3743 157.962 37.4209L158.473 39.4968L157.801 40.2247L157.128 40.9257L156.053 39.8473C155.461 39.2542 154.171 38.3914 153.203 37.9331C151.616 37.1782 151.133 37.0704 149.116 37.0973C146.212 37.0973 144.276 37.8253 142.34 39.6046L140.942 40.8987L139.867 39.8203C138.361 38.3645 135.914 37.2321 133.737 37.0165C130.967 36.7738 127.902 37.8522 125.805 39.8742C125.321 40.3326 124.864 40.71 124.756 40.71C124.649 40.71 124.03 40.2247 123.385 39.6046C122.74 39.0115 121.503 38.2027 120.669 37.7983C119.379 37.2052 118.76 37.0973 116.717 37.0973C114.647 37.0973 114.055 37.2052 112.684 37.8522C111.797 38.2566 110.506 39.0654 109.78 39.6586L108.516 40.7639L107.145 39.5238C105.236 37.7983 103.3 37.0973 100.45 37.0973C98.5413 37.0973 97.9229 37.2052 96.6323 37.7983C95.772 38.2027 94.6427 38.8498 94.105 39.2811L93.137 40.009L93.3252 38.8228C94.1318 34.0508 97.7078 28.7936 101.848 26.3402C103.946 25.073 107.145 24.0486 109.619 23.8329C112.361 23.5633 112.684 23.2128 112.899 20.4359C113.222 15.8257 115.131 12.5904 118.76 10.3527C121.395 8.76208 124.434 8.30375 127.579 9.03168ZM98.0305 15.1247C100.02 18.2521 101.687 20.9481 101.741 21.1368C101.795 21.4334 98.9446 23.1319 98.7564 22.8893C97.8692 21.703 91.2818 11.2424 91.3894 11.1615C91.7389 10.8111 93.8899 9.46304 94.1318 9.46304C94.2932 9.46304 96.0408 11.9973 98.0305 15.1247ZM103.569 42.1928C104.994 43.0286 106.07 44.5384 106.258 45.9942C106.527 47.8815 106.634 48.2319 107.226 48.7981C107.549 49.0947 108.167 49.3373 108.651 49.3373C109.888 49.3373 110.56 48.5555 110.775 46.8839C111.124 44.2957 112.227 42.786 114.539 41.7615C116.905 40.737 119.863 41.5727 121.422 43.7026C122.31 44.9428 122.39 45.1315 122.632 46.9918C122.847 48.5285 123.6 49.3373 124.783 49.3373C125.886 49.3373 126.746 48.5015 126.934 47.2614C127.311 45.0506 127.391 44.7541 128.171 43.7026C129.703 41.5727 132.688 40.737 135.027 41.7615C137.313 42.786 138.415 44.2688 138.764 46.7761C138.872 47.531 139.195 48.3937 139.517 48.7172C140.216 49.4991 141.641 49.553 142.394 48.7981C142.932 48.2589 143.066 47.8815 143.308 45.9942C143.765 42.5972 147.96 40.3595 151.159 41.7615C153.472 42.786 154.655 44.4036 154.95 46.9378C155.166 48.852 156.51 49.7956 158.123 49.1755C158.661 48.9599 159.333 47.6658 159.333 46.7761C159.333 45.9134 159.521 45.9134 160.973 46.8839C165.194 49.7148 167.614 55.1338 166.861 60.0405C166.404 63.0331 166.431 63.0062 165.06 61.1998C161.296 56.1583 155.219 53.8397 149.143 55.1338C145.648 55.8617 142.045 58.0994 139.947 60.8494L138.791 62.3322L137.985 61.3077C134.812 57.2097 129.838 54.7294 124.783 54.7294C119.728 54.7294 114.754 57.2097 111.582 61.3077L110.775 62.3322L109.673 60.8763C106.957 57.2636 101.768 54.7294 97.1432 54.7294C92.2497 54.7563 87.1412 57.3984 84.4525 61.3346L83.377 62.8714L83.0275 61.7121C82.4628 59.8788 82.5435 56.2661 83.2157 54.1632C84.1567 51.1976 86.1464 48.5285 88.7275 46.803C90.0181 45.9403 90.2332 45.9403 90.2332 46.7761C90.2332 47.6658 90.9054 48.9599 91.4431 49.1755C93.0564 49.7956 94.4007 48.852 94.6427 46.8839C95.2611 42.2468 99.6975 39.9282 103.569 42.1928ZM100.208 59.5283C103.408 60.418 105.989 62.6018 107.575 65.7831C108.194 66.9963 108.355 67.8051 108.543 70.2315C108.651 71.8491 109.484 80.4764 110.372 89.3464C111.286 98.2433 112.012 105.738 112.012 106.008C112.012 106.466 111.797 106.493 108.732 106.439L105.424 106.358L104.994 104.471C99.4286 80.8808 98.7833 78.2927 98.2993 77.7804C97.0357 76.5402 94.804 77.5108 94.804 79.2902C94.804 79.9642 97.1432 90.29 100.02 102.233C100.558 104.417 100.988 106.277 100.988 106.358C100.988 106.439 100.047 106.493 98.8909 106.493H96.7937L95.53 102.503C94.804 100.319 92.3573 92.7973 90.045 85.7876C85.5011 71.8761 85.286 70.9325 86.0388 67.9669C87.0874 63.815 90.0719 60.7145 94.105 59.5553C96.2559 58.9352 98.0305 58.9352 100.208 59.5283ZM128.305 59.6092C132.607 60.9302 135.215 63.7341 136.371 68.2095C136.775 69.8541 136.775 70.2585 136.371 74.2756C135.672 81.0965 135.242 85.4102 134.14 96.3021L133.145 106.493H130.107H127.069L127.015 87.3244L126.934 68.1556L126.181 67.5085C125.24 66.6997 124.353 66.6728 123.439 67.4546L122.767 68.0747V87.2704L122.74 106.493H119.594H116.421L115.964 101.694C115.722 99.079 114.916 90.937 114.163 83.6038C113.41 76.2706 112.872 69.8541 112.98 69.3149C113.06 68.7757 113.329 67.7242 113.544 66.9963C115.4 61.065 122.148 57.695 128.305 59.6092ZM155.139 59.4744C160.57 60.8763 164.253 65.8909 163.823 71.3099C163.716 72.7119 162.828 75.7584 160.301 83.4421C158.446 89.0768 155.999 96.5717 154.843 100.077L152.773 106.493H150.649C148.766 106.493 148.551 106.439 148.686 106.008C149.439 103.258 154.816 79.7485 154.816 79.1554C154.762 76.9716 151.778 76.4863 150.864 78.5083C150.649 78.9936 149.062 85.4102 147.341 92.7434C145.621 100.077 144.169 106.17 144.088 106.277C144.034 106.412 142.529 106.493 140.754 106.493C137.877 106.493 137.555 106.439 137.555 106.008C137.555 105.55 138.899 92.0694 140.136 80.072C140.485 76.4324 140.915 72.1188 141.023 70.4472C141.319 66.6728 142.179 64.5699 144.357 62.467C147.368 59.5283 151.213 58.4499 155.139 59.4744Z" fill="black"/>
<path d="M114.209 46.7827C112.795 47.3843 112.366 48.1578 112.366 50.0487C112.366 52.6701 115.752 54.0023 117.938 52.2404C119.009 51.3809 119.266 48.7165 118.366 47.6851C117.466 46.5678 115.623 46.1811 114.209 46.7827Z" fill="black"/>
<path d="M127.153 143.99C123.075 144.707 121.058 146.772 121.058 150.228C121.058 152.294 121.226 152.715 122.445 153.937C123.454 154.949 124.757 155.623 126.984 156.255C130.936 157.436 131.986 158.11 131.986 159.417C131.986 161.988 126.984 161.861 123.075 159.122C122.487 158.7 121.856 158.363 121.73 158.363C121.268 158.363 119.755 161.819 119.965 162.367C120.049 162.662 121.226 163.421 122.571 164.095C124.504 165.022 125.681 165.317 128.582 165.444C131.734 165.57 132.449 165.444 134.088 164.601C136.778 163.21 137.997 161.229 137.745 158.658C137.535 156.087 136.022 154.443 132.869 153.305C131.566 152.841 129.717 152.167 128.75 151.788C125.639 150.65 125.934 148.247 129.212 148.247C130.137 148.247 132.028 148.711 133.374 149.259L135.812 150.27L136.82 148.205L137.871 146.182L136.736 145.592C133.92 144.159 129.969 143.527 127.153 143.99Z" fill="black"/>
<path d="M3.3623 154.779V165.527H5.88434H8.40638L8.49045 158.825L8.61655 152.081L11.0125 157.645L13.4084 163.208H15.2159H16.9813L19.3352 157.856C20.6383 154.905 21.8572 152.334 21.9833 152.166C22.1515 152.039 22.2776 154.947 22.2776 158.699V165.527H24.5895H26.9013V154.779V143.989L23.9169 144.115L20.9745 144.242L18.1583 150.437C16.645 153.852 15.2999 156.549 15.1738 156.465C15.0477 156.38 13.7027 153.556 12.1894 150.185L9.45723 144.031H6.43078H3.3623V154.779Z" fill="black"/>
<path d="M40.1848 144.368C39.9746 144.705 31.82 163.461 31.2315 164.979C31.0634 165.4 31.7359 165.527 33.7536 165.527H36.4437L37.3264 163.419L38.2092 161.27L42.917 161.396L47.5827 161.523L48.2973 163.419L48.9698 165.316L51.8702 165.442C54.4342 165.569 54.6865 165.484 54.4763 164.81C54.3502 164.389 52.3746 159.584 50.0627 154.147L45.9014 144.242L43.1692 144.115C41.6559 144.031 40.3109 144.157 40.1848 144.368ZM44.4722 153.43C45.1868 155.327 45.8173 157.055 45.8173 157.223C45.8173 157.392 44.5142 157.518 42.8749 157.518C41.2776 157.518 39.9325 157.35 39.9325 157.139C39.9325 156.465 42.5807 149.932 42.8329 149.932C42.959 149.932 43.7156 151.491 44.4722 153.43Z" fill="black"/>
<path d="M58.8477 154.737V165.527H61.5799H64.3121V162.576V159.626H66.5399H68.7677L70.365 162.576L71.9202 165.527H74.8626C76.4599 165.527 77.7629 165.442 77.7629 165.358C77.7629 165.232 76.7962 163.672 75.6612 161.86L73.5595 158.572L74.8206 157.518C78.5616 154.357 78.0572 147.656 73.8538 145.253C72.2145 144.326 71.5839 144.242 65.489 144.115L58.8477 143.947V154.737ZM71.2477 149.299C72.5928 150.606 72.5928 152.461 71.3317 153.936C70.4911 154.947 70.0707 155.074 67.4646 155.116L64.5222 155.2L64.3961 151.702L64.27 148.246H67.2544C69.8606 148.246 70.365 148.372 71.2477 149.299Z" fill="black"/>
<path d="M83.2273 154.779V165.527H85.9595H88.6917V154.779V144.031H85.9595H83.2273V154.779Z" fill="black"/>
<path d="M94.9963 154.779V165.527H97.5184H99.9984L100.124 158.909L100.251 152.334L105.211 158.909L110.129 165.527H112.44H114.752V154.779V144.031H112.23H109.708V150.648V157.266L104.79 150.648L99.8302 144.031H97.4343H94.9963V154.779Z" fill="black"/>
<path d="M156.872 145.127C152.794 147.151 150.693 150.86 150.987 155.369C151.239 158.446 152.248 160.891 154.139 162.661C158.007 166.328 165.32 166.497 169.44 162.998L170.869 161.776L169.356 160.259L167.885 158.741L165.993 159.795C162.42 161.86 158.763 160.933 156.998 157.477C155.695 154.99 156.535 151.197 158.721 149.637C161.243 147.867 163.513 147.909 166.287 149.764L167.885 150.86L169.272 149.258C170.07 148.373 170.617 147.446 170.533 147.235C170.449 146.982 169.188 146.139 167.758 145.38C165.489 144.242 164.69 144.032 162.084 144.032C159.688 144.032 158.595 144.242 156.872 145.127Z" fill="black"/>
<path d="M182.26 144.368C182.05 144.705 173.895 163.461 173.306 164.979C173.138 165.4 173.811 165.527 175.829 165.527H178.519L179.401 163.419L180.284 161.27L184.992 161.396L189.658 161.523L190.372 163.419L191.045 165.316L193.945 165.442C196.509 165.569 196.761 165.484 196.551 164.81C196.425 164.389 194.45 159.584 192.138 154.147L187.976 144.242L185.244 144.115C183.731 144.031 182.386 144.157 182.26 144.368ZM186.547 153.43C187.262 155.327 187.892 157.055 187.892 157.223C187.892 157.392 186.589 157.518 184.95 157.518C183.353 157.518 182.007 157.35 182.007 157.139C182.007 156.465 184.656 149.932 184.908 149.932C185.034 149.932 185.791 151.491 186.547 153.43Z" fill="black"/>
<path d="M200.922 154.779V165.527H203.654H206.386V162.871C206.428 160.511 206.554 160.089 207.815 158.614L209.244 156.97L212.061 161.227L214.919 165.527H218.029C219.711 165.527 221.098 165.442 221.098 165.316C221.098 165.189 219.29 162.365 217.063 158.994L212.985 152.882L215.465 150.1C216.81 148.583 218.576 146.602 219.333 145.675L220.762 144.031H217.651H214.583L210.589 148.625L206.596 153.219L206.47 148.625L206.344 144.031H203.654H200.922V154.779Z" fill="black"/>
<path d="M226.143 154.779V165.527H234.76H243.376V163.419V161.312H237.492H231.607V158.994V156.675H236.651H241.695V154.568V152.461H236.651H231.607V150.353V148.246H237.282H242.956V146.138V144.031H234.549H226.143V154.779Z" fill="black"/>
<path d="M0 192.713V201.775H1.26102H2.48L2.60611 195.115L2.73221 188.498L5.46441 194.061C7.90238 199.035 8.32272 199.667 9.24747 199.667C10.1722 199.667 10.6346 199.035 13.1146 194.061L15.9309 188.498V195.115L15.9729 201.775H17.4441H18.9153L18.8312 192.797L18.7051 183.861L17.0238 183.735L15.3424 183.609L12.358 189.636L9.37357 195.663L6.34713 189.636L3.36272 183.651H1.68136H0V192.713Z" fill="black"/>
<path d="M30.3052 184.578C29.8429 185.8 23.1174 201.058 22.8232 201.437C22.7391 201.648 23.3696 201.775 24.2523 201.775C25.8076 201.775 25.9337 201.69 26.7744 199.667L27.6571 197.56H32.1547H36.6103L37.493 199.667C38.3337 201.69 38.4598 201.775 39.973 201.775H41.5703L38.3758 194.483C36.6524 190.521 34.8449 186.433 34.4246 185.421C33.71 183.819 33.4998 183.651 32.1547 183.651C30.9778 183.651 30.5995 183.862 30.3052 184.578ZM33.7941 190.774C34.6347 192.755 35.3073 194.483 35.3073 194.694C35.3073 194.862 33.7941 195.031 31.9866 195.031H28.6659L30.3893 191.027C31.3141 188.835 32.1127 187.065 32.1547 187.149C32.2388 187.191 32.9534 188.835 33.7941 190.774Z" fill="black"/>
<path d="M45.8162 192.671V201.775H50.1877C55.1057 201.775 57.5016 201.142 59.4352 199.33C62.8399 196.127 63.1342 190.057 59.9816 186.686C58.048 184.62 56.0304 183.946 50.7762 183.735L45.8162 183.524V192.671ZM56.2406 187.444C59.0989 189.214 60.0657 192.881 58.4684 195.874C57.3335 198.023 55.526 198.909 51.8691 199.161L48.7585 199.372V192.966V186.601H51.827C54.0969 186.601 55.1897 186.812 56.2406 187.444Z" fill="black"/>
<path d="M67.2542 192.713V201.775H73.7694H80.2847V200.51V199.246H75.2406H70.1965V196.717V194.23L74.526 194.104L78.8135 193.977V192.713V191.448L74.526 191.322L70.1965 191.195V188.919V186.601H75.0304H79.8643V185.126V183.651H73.5592H67.2542V192.713Z" fill="black"/>
<path d="M92.054 184.157C92.054 184.452 93.315 188.54 94.8702 193.219L97.7285 201.775H99.2418H100.755L102.815 195.031C103.95 191.322 104.958 188.287 105.084 188.287C105.253 188.287 106.261 191.322 107.354 195.031L109.414 201.775H110.927H112.44L115.299 193.219C116.854 188.54 118.115 184.452 118.115 184.157C118.115 183.777 117.653 183.651 116.77 183.735L115.383 183.862L113.281 190.9C112.146 194.82 111.095 197.981 110.969 197.981C110.843 197.981 109.918 195.073 108.91 191.533C106.598 183.524 106.64 183.567 105 183.735L103.655 183.862L101.596 190.943C100.419 194.82 99.3679 197.855 99.1997 197.686C99.0316 197.518 98.0228 194.272 96.8879 190.479L94.8702 183.651H93.4411C92.6424 183.651 92.054 183.862 92.054 184.157Z" fill="black"/>
<path d="M122.319 192.671V201.775H123.79H125.261L125.177 192.797L125.051 183.862L123.706 183.735L122.319 183.609V192.671Z" fill="black"/>
<path d="M129.465 185.126V186.601H132.197H134.929V194.188V201.775H136.4H137.872V194.188V186.643L140.73 186.517L143.546 186.391V185.126V183.862L136.527 183.735L129.465 183.651V185.126Z" fill="black"/>
<path d="M147.959 192.671V201.775H149.43H150.902V197.981V194.146L155.651 194.272L160.359 194.399L160.485 198.066L160.611 201.775H162.083H163.512L163.428 192.797L163.302 183.862L161.957 183.735L160.611 183.609L160.485 187.529L160.359 191.448L155.651 191.575L150.944 191.701L150.818 187.781L150.691 183.862L149.346 183.735L147.959 183.609V192.671Z" fill="black"/>
<path d="M178.224 192.671V201.775H183.478H188.732V200.51V199.246H184.949H181.166L181.082 191.533L180.956 183.862L179.611 183.735L178.224 183.609V192.671Z" fill="black"/>
<path d="M198.358 184.283C195.878 185.084 193.188 187.95 192.515 190.437C191.296 194.989 193.902 199.794 198.358 201.311C200.46 201.986 203.822 201.859 205.756 200.974C212.271 198.024 212.818 188.751 206.681 185.168C204.369 183.82 200.964 183.44 198.358 184.283ZM204.915 187.402C209.119 189.763 208.992 195.916 204.705 198.361C199.367 201.353 193.314 195.874 195.794 190.268C197.433 186.601 201.3 185.379 204.915 187.402Z" fill="black"/>
<path d="M213.532 184.072C213.532 184.283 215.087 188.371 216.979 193.134L220.425 201.775H221.939H223.452L226.899 193.134C228.79 188.371 230.345 184.283 230.345 184.03C230.345 183.777 229.715 183.651 229 183.735C227.613 183.862 227.613 183.904 224.881 190.9C223.41 194.82 222.107 197.981 221.939 197.981C221.812 197.981 220.509 194.736 219.038 190.816L216.348 183.651H214.961C214.162 183.651 213.532 183.819 213.532 184.072Z" fill="black"/>
<path d="M234.969 192.713V201.775H241.484H248V200.51V199.246H242.956H237.912V196.717V194.23L242.241 194.104L246.529 193.977V192.713V191.448L242.241 191.322L237.912 191.195V188.919V186.601H242.746H247.579V185.126V183.651H241.274H234.969V192.713Z" fill="black"/>
</svg>
