<svg width="452" height="139" viewBox="0 0 452 139" fill="none" xmlns="http://www.w3.org/2000/svg">
<path d="M29.65 0.845484L28.7731 1.7248L29.0091 8.72553C29.1778 13.1221 29.1441 15.591 28.9417 15.3881C28.7731 15.1851 27.289 12.9868 25.6701 10.4504C22.7357 5.7832 21.5552 4.66714 20.2398 5.20826C19.1943 5.6141 11.0995 10.89 10.5598 11.5664C9.48055 12.8177 9.81783 14.1367 12.0776 17.5864C17.0694 25.2297 21.4203 32.0275 21.4203 32.2642C21.4203 32.3657 20.5771 33.5156 19.5315 34.7669C16.0913 38.9268 13.3256 45.9275 13.3256 50.4255V52.3533L11.0658 53.6384C8.43497 55.0927 4.89352 58.61 3.27457 61.3156C0.711226 65.5769 -0.469259 71.1234 0.171576 75.8243C0.610042 79.071 1.18342 80.8973 2.70119 83.8735C3.6793 85.7674 3.84794 86.5114 3.98286 89.2847C4.18523 92.7681 3.94913 91.9903 13.0557 119.723C14.9108 125.404 17.0019 131.695 17.6428 133.758C18.3511 135.922 19.1605 137.749 19.599 138.222L20.3747 139H58.3189H96.2631L97.1063 138.222C97.6797 137.715 98.388 136.024 99.501 132.574C100.344 129.869 103.548 120.061 106.584 110.76C109.653 101.46 112.284 93.174 112.453 92.3285C112.655 91.483 112.824 89.6905 112.824 88.3377C112.824 86.3762 112.992 85.6321 113.599 84.6175C117.309 78.5976 117.68 70.1088 114.544 63.4124C113.195 60.5377 110.699 57.3586 108.203 55.3633L106.078 53.6384V51.4401C106.078 48.8698 105.134 44.6085 103.919 41.5985C103.009 39.3664 99.872 34.4287 98.6915 33.3465L97.9832 32.7039L99.0625 31.5202C101.727 28.4764 102.773 23.5049 101.491 19.9199C100.344 16.7747 97.4436 14.2382 93.9696 13.325C92.4518 12.953 92.4181 12.9192 91.5074 10.4842C89.5175 5.1068 85.9423 2.7394 80.4783 3.11142C76.9369 3.38198 72.7546 5.98612 71.1019 8.96227C70.7646 9.53721 70.6971 9.53721 69.4492 8.75935C66.1776 6.73016 61.8266 5.41118 58.3526 5.41118C54.3727 5.41118 49.0099 7.3051 45.8732 9.80777L44.5241 10.89L44.3217 7.37274C44.1868 5.47882 44.0856 3.38198 44.0519 2.77322C44.0182 2.09682 43.7146 1.35278 43.175 0.845484C42.3655 -1.4402e-05 42.2643 -1.4402e-05 36.4293 -1.4402e-05C30.5269 -1.4402e-05 30.4932 -1.4402e-05 29.65 0.845484ZM39.0939 12.0061C39.2625 17.282 39.2288 18.9392 38.824 20.3596C38.5542 21.3404 38.2507 22.6932 38.1495 23.3696C37.9471 24.4856 37.8122 24.6209 36.6992 24.79C36.0246 24.9253 35.3838 24.9253 35.2826 24.8238C35.1814 24.7224 34.979 21.7124 34.8441 18.1613C34.7429 14.5764 34.5406 10.2474 34.4394 8.52261L34.2707 5.41118H36.5643H38.8578L39.0939 12.0061ZM84.6943 9.50339C85.976 10.7209 86.5494 12.0399 86.8529 14.4749C87.2239 17.3158 87.7636 17.8569 90.6979 18.2966C94.6779 18.8377 96.3305 20.1905 96.5666 23.099C96.8027 26.0414 94.8465 28.916 91.6423 30.3027C90.0908 30.9791 84.0535 30.7423 79.0955 29.8292L75.925 29.2542L75.6552 28.0705C75.1493 25.6693 74.3735 19.1759 74.3735 17.1805C74.3735 16.0645 74.5422 14.5426 74.7783 13.8323C75.2842 12.0737 77.2067 9.87541 78.8931 9.06373C80.8156 8.18441 83.5138 8.38733 84.6943 9.50339ZM61.8604 11.3297C64.019 11.837 67.3581 13.6294 68.3699 14.7793C68.7409 15.219 68.9433 16.4703 69.1119 19.2774C69.3817 24.8238 70.7983 32.3657 71.6753 33.3126C73.3279 35.0713 89.0115 36.999 92.1145 35.8491C92.924 35.5109 93.1601 35.6124 94.2057 36.5932C96.8365 39.1297 99.0625 43.1204 99.9732 46.9421L100.614 49.5462L99.7708 50.4594L98.9276 51.3387L97.5785 49.9859C96.8365 49.2418 95.2175 48.1596 94.0033 47.5847C92.0133 46.6377 91.4062 46.5024 88.8766 46.5362C85.234 46.5362 82.8056 47.4494 80.3771 49.6815L78.6233 51.3049L77.2741 49.9521C75.3854 48.1258 72.3161 46.7053 69.5841 46.4348C66.1101 46.1304 62.2651 47.4832 59.6343 50.0197C59.0272 50.5946 58.4538 51.0681 58.3189 51.0681C58.184 51.0681 57.4083 50.4594 56.5988 49.6815C55.7893 48.9375 54.2378 47.9229 53.1922 47.4156C51.5733 46.6715 50.7975 46.5362 48.2342 46.5362C45.6371 46.5362 44.8951 46.6715 43.175 47.4832C42.0619 47.9905 40.443 49.0051 39.5323 49.7491L37.9471 51.1358L36.227 49.58C33.8323 47.4156 31.4038 46.5362 27.8287 46.5362C25.434 46.5362 24.6582 46.6715 23.0393 47.4156C21.96 47.9229 20.5434 48.7345 19.8688 49.2757L18.6546 50.1888L18.8907 48.7007C19.9025 42.7146 24.3884 36.1197 29.5825 33.0421C32.2133 31.4525 36.227 30.1674 39.33 29.8968C42.7702 29.5586 43.175 29.119 43.4448 25.6355C43.8495 19.8523 46.2442 15.7939 50.7975 12.9868C54.1029 10.9915 57.9142 10.4165 61.8604 11.3297ZM24.7931 18.973C27.289 22.8961 29.3802 26.2781 29.4476 26.5148C29.5151 26.8868 25.9399 29.0175 25.7038 28.7131C24.5908 27.225 16.3274 14.1029 16.4623 14.0014C16.9007 13.5618 19.599 11.8708 19.9025 11.8708C20.1049 11.8708 22.2972 15.0499 24.7931 18.973ZM31.7411 52.9282C33.5287 53.9766 34.8778 55.8706 35.1139 57.6968C35.4512 60.0642 35.5861 60.5039 36.3282 61.2141C36.7329 61.5861 37.5086 61.8905 38.1158 61.8905C39.6672 61.8905 40.5105 60.9097 40.7803 58.8129C41.2187 55.5662 42.6016 53.6723 45.5022 52.3871C48.4703 51.1019 52.1804 52.1504 54.1366 54.8221C55.2497 56.3779 55.3508 56.6146 55.6544 58.9482C55.9242 60.8759 56.8686 61.8905 58.3526 61.8905C59.7355 61.8905 60.8148 60.8421 61.0509 59.2864C61.5231 56.5131 61.6243 56.1411 62.6024 54.8221C64.5249 52.1504 68.2687 51.1019 71.2031 52.3871C74.07 53.6723 75.4528 55.5324 75.8913 58.6776C76.0262 59.6246 76.4309 60.7068 76.8357 61.1126C77.7126 62.0934 79.5002 62.1611 80.4446 61.2141C81.1191 60.5377 81.2878 60.0642 81.5913 57.6968C82.1647 53.4355 87.4263 50.6285 91.44 52.3871C94.3406 53.6723 95.8246 55.7015 96.1956 58.8805C96.4655 61.2817 98.1519 62.4654 100.176 61.6876C100.85 61.417 101.693 59.7937 101.693 58.6776C101.693 57.5954 101.929 57.5954 103.751 58.8129C109.046 62.364 112.082 69.1618 111.137 75.317C110.564 79.071 110.598 79.0372 108.877 76.7713C104.155 70.447 96.5329 67.5384 88.9104 69.1618C84.5257 70.0749 80.0061 72.882 77.3753 76.3316L75.925 78.1917L74.9132 76.9066C70.9332 71.7659 64.6935 68.6545 58.3526 68.6545C52.0118 68.6545 45.772 71.7659 41.7921 76.9066L40.7803 78.1917L39.3974 76.3654C35.9909 71.8336 29.4813 68.6545 23.6801 68.6545C17.5416 68.6883 11.1332 72.0027 7.76041 76.9404L6.41128 78.8681L5.97282 77.4139C5.26453 75.1141 5.36571 70.5822 6.20892 67.9443C7.3894 64.2241 9.88529 60.8759 13.1232 58.7114C14.7421 57.6292 15.012 57.6292 15.012 58.6776C15.012 59.7937 15.8552 61.417 16.5297 61.6876C18.5534 62.4654 20.2398 61.2817 20.5434 58.8129C21.3191 52.9959 26.8843 50.0873 31.7411 52.9282ZM27.5251 74.6744C31.5388 75.7905 34.7767 78.5299 36.7666 82.5207C37.5424 84.0426 37.7447 85.0572 37.9808 88.101C38.1158 90.1302 39.1613 100.953 40.2744 112.079C41.4211 123.24 42.3318 132.642 42.3318 132.98C42.3318 133.555 42.0619 133.589 38.2169 133.521L34.0684 133.42L33.5287 131.052C26.547 101.46 25.7375 98.2131 25.1304 97.5706C23.5452 96.0148 20.7458 97.2324 20.7458 99.4645C20.7458 100.31 23.6801 113.263 27.289 128.245C27.9636 130.985 28.5032 133.318 28.5032 133.42C28.5032 133.521 27.3227 133.589 25.8724 133.589H23.2416L21.6564 128.583C20.7458 125.844 17.6765 116.408 14.7759 107.615C9.07581 90.164 8.80598 88.9803 9.75037 85.2601C11.0658 80.0518 14.8096 76.1625 19.8688 74.7083C22.5671 73.9304 24.7931 73.9304 27.5251 74.6744ZM62.771 74.7759C68.1675 76.4331 71.4392 79.9504 72.8895 85.5645C73.3954 87.6275 73.3954 88.1348 72.8895 93.174C72.0125 101.73 71.4729 107.142 70.09 120.805L68.8421 133.589H65.0308H61.2195L61.1521 109.543L61.0509 85.4968L60.1065 84.6852C58.926 83.6706 57.813 83.6367 56.6662 84.6175L55.823 85.3954V109.475L55.7893 133.589H51.8431H47.8632L47.2898 127.569C46.9863 124.288 45.9744 114.075 45.03 104.876C44.0856 95.6766 43.4111 87.6275 43.546 86.9511C43.6472 86.2747 43.9845 84.9557 44.2543 84.0426C46.5815 76.6022 55.0473 72.3747 62.771 74.7759ZM96.4317 74.6068C103.245 76.3654 107.866 82.656 107.326 89.4538C107.191 91.2124 106.078 95.0341 102.908 104.673C100.58 111.741 97.511 121.143 96.0607 125.54L93.4637 133.589H90.7991C88.4382 133.589 88.1683 133.521 88.337 132.98C89.2814 129.53 96.027 100.039 96.027 99.2954C95.9595 96.556 92.2157 95.9472 91.069 98.4837C90.7991 99.0925 88.8092 107.142 86.6506 116.341C84.492 125.54 82.6706 133.183 82.5695 133.318C82.502 133.487 80.6132 133.589 78.3872 133.589C74.7783 133.589 74.3735 133.521 74.3735 132.98C74.3735 132.405 76.0599 115.495 77.6114 100.445C78.0499 95.8796 78.5895 90.4684 78.7244 88.3715C79.0955 83.6367 80.1748 80.9988 82.9067 78.3608C86.6843 74.6744 91.5074 73.3216 96.4317 74.6068Z" fill="black"/>
<path d="M45.0881 58.6859C43.314 59.4406 42.7764 60.4109 42.7764 62.7829C42.7764 66.0713 47.0235 67.7424 49.7654 65.5322C51.1094 64.454 51.432 61.1117 50.303 59.818C49.174 58.4164 46.8623 57.9312 45.0881 58.6859Z" fill="black"/>
<path d="M299.501 35.1871C294.386 36.0859 291.855 38.6767 291.855 43.0122C291.855 45.603 292.066 46.1317 293.595 47.665C294.861 48.9339 296.495 49.7799 299.29 50.573C304.246 52.0534 305.565 52.8994 305.565 54.5384C305.565 57.7636 299.29 57.605 294.386 54.1683C293.648 53.6396 292.857 53.2166 292.699 53.2166C292.119 53.2166 290.221 57.5521 290.484 58.2395C290.59 58.6096 292.066 59.5613 293.753 60.4072C296.179 61.5704 297.655 61.9405 301.294 62.0992C305.248 62.2578 306.145 62.0992 308.201 61.0417C311.576 59.2969 313.105 56.8119 312.789 53.5867C312.525 50.3615 310.627 48.2995 306.672 46.8719C305.037 46.2903 302.717 45.4443 301.505 44.9685C297.603 43.5409 297.972 40.5272 302.085 40.5272C303.245 40.5272 305.617 41.1088 307.305 41.7962L310.363 43.0651L311.628 40.4743L312.947 37.9365L311.523 37.1963C307.99 35.3986 303.034 34.6055 299.501 35.1871Z" fill="black"/>
<path d="M144.214 48.7206V62.2031H147.378H150.541L150.647 53.7963L150.805 45.3368L153.811 52.3159L156.816 59.2951H159.083H161.298L164.251 52.5803C165.885 48.8792 167.415 45.654 167.573 45.4425C167.784 45.2839 167.942 48.9321 167.942 53.6377V62.2031H170.842H173.742V48.7206V35.1853L169.998 35.3439L166.307 35.5025L162.774 43.2747C160.876 47.5574 159.189 50.9412 159.031 50.8355C158.873 50.7297 157.185 47.1873 155.287 42.9575L151.86 35.2381H148.063H144.214V48.7206Z" fill="black"/>
<path d="M190.405 35.6611C190.141 36.0841 179.912 59.6123 179.174 61.5157C178.963 62.0444 179.807 62.2031 182.338 62.2031H185.712L186.82 59.5594L187.927 56.8629L193.832 57.0216L199.685 57.1802L200.582 59.5594L201.425 61.9387L205.064 62.0973C208.28 62.2559 208.597 62.1502 208.333 61.3042C208.175 60.7755 205.696 54.7481 202.796 47.9275L197.576 35.5025L194.149 35.3439C192.251 35.2381 190.563 35.3967 190.405 35.6611ZM195.783 47.0287C196.68 49.4079 197.471 51.5757 197.471 51.7872C197.471 51.9987 195.836 52.1573 193.78 52.1573C191.776 52.1573 190.089 51.9458 190.089 51.6814C190.089 50.8355 193.411 42.6403 193.727 42.6403C193.885 42.6403 194.834 44.5965 195.783 47.0287Z" fill="black"/>
<path d="M213.816 48.6677V62.2031H217.244H220.671V58.502V54.8009H223.466H226.26L228.264 58.502L230.215 62.2031H233.906C235.91 62.2031 237.544 62.0973 237.544 61.9916C237.544 61.833 236.332 59.8767 234.908 57.6032L232.272 53.4791L233.853 52.1573C238.546 48.1919 237.914 39.7852 232.641 36.7714C230.584 35.6082 229.793 35.5025 222.148 35.3439L213.816 35.1324V48.6677ZM229.371 41.8472C231.059 43.4862 231.059 45.8126 229.477 47.6631C228.422 48.9321 227.895 49.0907 224.626 49.1436L220.935 49.2493L220.777 44.8609L220.618 40.5254H224.362C227.631 40.5254 228.264 40.684 229.371 41.8472Z" fill="black"/>
<path d="M244.399 48.7206V62.2031H247.827H251.254V48.7206V35.2381H247.827H244.399V48.7206Z" fill="black"/>
<path d="M259.163 48.7206V62.2031H262.326H265.437L265.596 53.9021L265.754 45.654L271.976 53.9021L278.145 62.2031H281.045H283.945V48.7206V35.2381H280.781H277.618V43.5391V51.8401L271.448 43.5391L265.226 35.2381H262.221H259.163V48.7206Z" fill="black"/>
<path d="M336.781 36.6135C331.667 39.1514 329.03 43.8042 329.399 49.4615C329.716 53.3212 330.981 56.3878 333.354 58.6085C338.205 63.2084 347.38 63.4198 352.547 59.0314L354.34 57.4981L352.442 55.5947L350.596 53.6913L348.224 55.0131C343.742 57.6039 339.154 56.4407 336.94 52.1052C335.305 48.9857 336.36 44.2272 339.101 42.2709C342.265 40.0503 345.113 40.1031 348.593 42.4295L350.596 43.8042L352.336 41.795C353.338 40.6847 354.024 39.5215 353.918 39.2572C353.813 38.9399 352.231 37.8825 350.438 36.9308C347.591 35.5032 346.589 35.2389 343.32 35.2389C340.314 35.2389 338.943 35.5032 336.781 36.6135Z" fill="black"/>
<path d="M368.629 35.6611C368.366 36.0841 358.136 59.6123 357.398 61.5157C357.187 62.0444 358.031 62.2031 360.562 62.2031H363.936L365.044 59.5594L366.151 56.8629L372.057 57.0216L377.91 57.1802L378.806 59.5594L379.65 61.9387L383.288 62.0973C386.504 62.2559 386.821 62.1502 386.557 61.3042C386.399 60.7755 383.921 54.7481 381.021 47.9275L375.8 35.5025L372.373 35.3439C370.475 35.2381 368.787 35.3967 368.629 35.6611ZM374.008 47.0287C374.904 49.4079 375.695 51.5757 375.695 51.7872C375.695 51.9987 374.06 52.1573 372.004 52.1573C370 52.1573 368.313 51.9458 368.313 51.6814C368.313 50.8355 371.635 42.6403 371.951 42.6403C372.109 42.6403 373.058 44.5965 374.008 47.0287Z" fill="black"/>
<path d="M392.039 48.7206V62.2031H395.467H398.894V58.8721C398.947 55.9112 399.105 55.3825 400.687 53.532L402.48 51.47L406.012 56.8101L409.598 62.2031H413.5C415.609 62.2031 417.349 62.0973 417.349 61.9387C417.349 61.7801 415.082 58.2376 412.287 54.0078L407.173 46.3413L410.284 42.8518C411.971 40.9483 414.185 38.4633 415.135 37.3002L416.927 35.2381H413.025H409.176L404.167 41.0012L399.158 46.7643L399 41.0012L398.841 35.2381H395.467H392.039V48.7206Z" fill="black"/>
<path d="M423.677 48.7206V62.2031H434.487H445.296V59.5594V56.9158H437.914H430.532V54.0078V51.0999H436.859H443.187V48.4562V45.8126H436.859H430.532V43.169V40.5254H437.65H444.769V37.8817V35.2381H434.223H423.677V48.7206Z" fill="black"/>
<path d="M139.996 96.3062V107.674H141.578H143.107L143.265 99.3199L143.423 91.0189L146.851 97.9981C149.909 104.237 150.436 105.03 151.596 105.03C152.756 105.03 153.336 104.237 156.447 97.9981L159.98 91.0189V99.3199L160.033 107.674H161.878H163.724L163.618 96.4119L163.46 85.203L161.351 85.0444L159.242 84.8857L155.498 92.4465L151.754 100.007L147.958 92.4465L144.214 84.9386H142.105H139.996V96.3062Z" fill="black"/>
<path d="M178.012 86.102C177.432 87.6353 168.995 106.775 168.626 107.251C168.521 107.515 169.312 107.674 170.419 107.674C172.37 107.674 172.528 107.568 173.583 105.03L174.69 102.387H180.332H185.921L187.029 105.03C188.083 107.568 188.242 107.674 190.14 107.674H192.143L188.136 98.527C185.974 93.557 183.707 88.4284 183.18 87.1594C182.283 85.1503 182.02 84.9388 180.332 84.9388C178.856 84.9388 178.381 85.2032 178.012 86.102ZM182.389 93.8742C183.443 96.3592 184.287 98.527 184.287 98.7914C184.287 99.0029 182.389 99.2144 180.121 99.2144H175.956L178.118 94.1915C179.278 91.4421 180.279 89.2215 180.332 89.3272C180.438 89.3801 181.334 91.4421 182.389 93.8742Z" fill="black"/>
<path d="M197.469 96.2535V107.674H202.953C209.122 107.674 212.128 106.881 214.553 104.607C218.824 100.589 219.194 92.9754 215.239 88.7456C212.813 86.1549 210.282 85.3089 203.691 85.0445L197.469 84.7802V96.2535ZM210.546 89.6973C214.132 91.918 215.344 96.5179 213.341 100.272C211.917 102.968 209.65 104.079 205.062 104.396L201.16 104.66V96.6236V88.6399H205.009C207.857 88.6399 209.228 88.9042 210.546 89.6973Z" fill="black"/>
<path d="M224.362 96.3064V107.674H232.535H240.708V106.088V104.502H234.38H228.053V101.329V98.2098L233.484 98.0512L238.862 97.8925V96.3064V94.7202L233.484 94.5616L228.053 94.403V91.5479V88.6399H234.117H240.18V86.7893V84.9388H232.271H224.362V96.3064Z" fill="black"/>
<path d="M255.472 85.5733C255.472 85.9434 257.054 91.072 259.005 96.9408L262.59 107.674H264.489H266.387L268.971 99.2144C270.394 94.5616 271.66 90.7548 271.818 90.7548C272.029 90.7548 273.294 94.5616 274.665 99.2144L277.249 107.674H279.147H281.045L284.631 96.9408C286.582 91.072 288.164 85.9434 288.164 85.5733C288.164 85.0974 287.584 84.9388 286.476 85.0445L284.736 85.2032L282.1 94.0329C280.676 98.95 279.358 102.915 279.2 102.915C279.042 102.915 277.882 99.2672 276.616 94.8259C273.716 84.7802 273.769 84.8331 271.712 85.0445L270.025 85.2032L267.441 94.0857C265.965 98.95 264.647 102.757 264.436 102.545C264.225 102.334 262.959 98.2627 261.536 93.5041L259.005 84.9388H257.212C256.21 84.9388 255.472 85.2032 255.472 85.5733Z" fill="black"/>
<path d="M293.437 96.2535V107.674H295.283H297.128L297.023 96.4121L296.865 85.2032L295.177 85.0445L293.437 84.8859V96.2535Z" fill="black"/>
<path d="M302.401 86.7893V88.6399H305.829H309.256V98.1569V107.674H311.101H312.947V98.1569V88.6927L316.532 88.5341L320.065 88.3755V86.7893V85.2032L311.26 85.0445L302.401 84.9388V86.7893Z" fill="black"/>
<path d="M325.601 96.2535V107.674H327.447H329.292V102.915V98.104L335.251 98.2627L341.156 98.4213L341.315 103.021L341.473 107.674H343.318H345.111L345.006 96.4121L344.847 85.2032L343.16 85.0445L341.473 84.8859L341.315 89.8031L341.156 94.7202L335.251 94.8788L329.345 95.0374L329.187 90.1203L329.029 85.2032L327.341 85.0445L325.601 84.8859V96.2535Z" fill="black"/>
<path d="M363.566 96.2535V107.674H370.157H376.748V106.088V104.502H372.003H367.257L367.151 94.8259L366.993 85.2032L365.306 85.0445L363.566 84.8859V96.2535Z" fill="black"/>
<path d="M388.823 85.7321C385.712 86.7367 382.337 90.332 381.494 93.4515C379.964 99.1617 383.234 105.189 388.823 107.093C391.459 107.939 395.678 107.78 398.103 106.67C406.276 102.969 406.962 91.3366 399.263 86.8424C396.363 85.1505 392.092 84.6746 388.823 85.7321ZM397.049 89.6446C402.322 92.6055 402.163 100.325 396.785 103.391C390.088 107.145 382.495 100.272 385.606 93.24C387.663 88.6401 392.514 87.1068 397.049 89.6446Z" fill="black"/>
<path d="M407.858 85.4675C407.858 85.7319 409.809 90.8605 412.182 96.8351L416.505 107.674H418.404H420.302L424.626 96.8351C426.999 90.8605 428.949 85.7319 428.949 85.4147C428.949 85.0974 428.159 84.9388 427.262 85.0445C425.522 85.2032 425.522 85.256 422.095 94.0329C420.249 98.95 418.615 102.915 418.404 102.915C418.246 102.915 416.611 98.8443 414.765 93.9271L411.391 84.9388H409.651C408.649 84.9388 407.858 85.1503 407.858 85.4675Z" fill="black"/>
<path d="M434.75 96.3064V107.674H442.923H451.096V106.088V104.502H444.768H438.441V101.329V98.2098L443.872 98.0512L449.25 97.8925V96.3064V94.7202L443.872 94.5616L438.441 94.403V91.5479V88.6399H444.505H450.569V86.7893V84.9388H442.659H434.75V96.3064Z" fill="black"/>
</svg>
